# AST/ASF file generated using VICON BodyLanguage
# -----------------------------------------------
:version 1.10
:name VICON
:units
  mass 1.0
  length 0.45
  angle deg
:documentation
   .ast/.asf automatically generated from VICON data using
   VICON BodyBuilder and BodyLanguage model FoxedUp or BRILLIANT.MOD
:root
   order TX TY TZ RX RY RZ
   axis XYZ
   position 0 0 0  
   orientation 0 0 0 
:bonedata
  begin
     id 1 
     name lhipjoint
     direction 0.606768 -0.715223 0.346827 
     length 2.41543 
     axis 0 0 0  XYZ
  end
  begin
     id 2 
     name lfemur
     direction 0.34202 -0.939693 0  
     length 7.2778  
     axis 0 0 20  XYZ
    dof rx ry rz
    limits (-160.0 20.0)
           (-70.0 70.0)
           (-60.0 70.0)
  end
  begin
     id 3 
     name ltibia
     direction 0.34202 -0.939693 0   
     length 7.61811   
     axis 0 0 20   XYZ
    dof rx
    limits (-10.0 170.0)
  end
  begin
     id 4 
     name lfoot
     direction 0.0823924 -0.226371 0.97055   
     length 2.33618   
     axis -90 7.62852e-016 20   XYZ
    dof rx rz
    limits (-45.0 90.0)
           (-70.0 20.0)
  end
  begin
     id 5 
     name ltoes
     direction 1.53554e-011 -4.21934e-011 1   
     length 1.17015   
     axis -90 7.62852e-016 20   XYZ
    dof rx
    limits (-90.0 20.0)
  end
  begin
     id 6 
     name rhipjoint
     direction -0.6077 -0.714582 0.346516   
     length 2.4176  
     axis 0 0 0  XYZ 
  end
  begin
     id 7 
     name rfemur
     direction -0.34202 -0.939693 0   
     length 7.28127   
     axis 0 0 -20   XYZ
    dof rx ry rz
    limits (-160.0 20.0)
           (-70.0 70.0)
           (-70.0 60.0)
  end
  begin
     id 8 
     name rtibia
     direction -0.34202 -0.939693 0   
     length 7.77648   
     axis 0 0 -20   XYZ
    dof rx
    limits (-10.0 170.0)
 end
 begin
     id 9 
     name rfoot
     direction -0.0809463 -0.222398 0.97159   
     length 2.37533  
     axis -90 -7.62852e-016 -20   XYZ
    dof rx rz
    limits (-45.0 90.0)
           (-20.0 70.0)
  end
  begin
     id 10 
     name rtoes
     direction -1.53568e-011 -4.21714e-011 1   
     length 1.18972   
     axis -90 -7.62852e-016 -20   XYZ
    dof rx
    limits (-90.0 20.0)
  end
  begin
     id 11 
     name lowerback
     direction 0.010968 0.991932 -0.126297   
     length 2.21698   
     axis 0 0 0   XYZ
    dof rx ry rz
    limits (-20.0 45.0)
           (-30.0 30.0)
           (-30.0 30.0)
  end
  begin
     id 12 
     name upperback
     direction 0.0167007 0.997503 -0.0686276   
     length 2.22371   
     axis 0 0 0   XYZ
    dof rx ry rz
    limits (-20.0 45.0)
           (-30.0 30.0)
           (-30.0 30.0)
  end
  begin
     id 13 
     name thorax
     direction 0.0111721 0.999885 -0.0102878   
     length 2.25242   
     axis 0 0 0   XYZ
    dof rx ry rz
    limits (-20.0 45.0)
           (-30.0 30.0)
           (-30.0 30.0)
  end
  begin
     id 14 
     name lowerneck
     direction -0.0120265 0.990428 0.137508   
     length 1.57674   
     axis 0 0 0   XYZ
    dof rx ry rz
    limits (-20.0 45.0)
           (-30.0 30.0)
           (-30.0 30.0)
  end
  begin
     id 15 
     name upperneck
     direction 0.0175669 0.998907 0.0433089   
     length 1.5618   
     axis 0 0 0   XYZ
    dof rx ry rz
    limits (-20.0 45.0)
           (-30.0 30.0)
           (-30.0 30.0)
  end
  begin
     id 16
     name head
     direction 0.00754609 0.99997 0.00185367  
     length 1.60579  
     axis 0 0 0   XYZ
    dof rx ry rz
    limits (-20.0 45.0)
           (-30.0 30.0)
           (-30.0 30.0)
  end
  begin
     id 17 
     name lclavicle
     direction 0.885866 0.429166 -0.176231  
     length 3.44967  
     axis 0 0 0   XYZ
    dof ry rz
    limits (-20.0 10.0)
           (0.0 20.0)
  end
  begin
     id 18 
     name lhumerus
     direction 1 -4.48973e-011 -1.90255e-027   
     length 5.20607   
     axis 180 -30 -90   XYZ
    dof rx ry rz
    limits (-60.0 90.0)
           (-90.0 90.0)
           (-90.0 90.0)
  end
  begin
     id 19
     name lradius
     direction 1 -4.48956e-011 9.87925e-027   
     length 3.39961   
     axis 180 -30 -90   XYZ
    dof rx
    limits (-10.0 170.0)
  end
  begin
     id 20
     name lwrist
     direction 1 -4.48985e-011 1.73247e-026   
     length 1.6998   
     axis -9.60847e-015 90 90   XYZ
    dof ry
    limits (-180.0 0.0)
 end
  begin
     id 21 
     name lhand
     direction 1 -4.48798e-011 3.46119e-026   
     length 0.519693   
     axis -2.21073e-014 90 90   XYZ
    dof rx rz
    limits (-90.0 90.0)
           (-45.0 45.0)
  end
  begin
     id 22 
     name lfingers
     direction 1 -4.48938e-011 6.92797e-026   
     length 0.41899   
     axis -4.42155e-014 90 90   XYZ
    dof rx
    limits (0.0 90.0)
  end
  begin
     id 23
     name lthumb
     direction 0.707107 -6.34952e-011 0.707107   
     length 0.601588   
     axis -90 45 6.0103e-014   XYZ
    dof rx rz
    limits (-45.0 45.0)
           (-45.0 45.0)
  end
  begin
     id 24 
     name rclavicle
     direction -0.866736 0.456792 -0.200276   
     length 3.45032  
     axis 0 0 0   XYZ 
    dof ry rz
    limits (-10.0 20.0)
           (-20.0 0.0)
  end
  begin
     id 25 
     name rhumerus
     direction -1 -4.4897e-011 8.65094e-028  
     length 5.32214   
     axis 180 30 90   XYZ
    dof rx ry rz
    limits (-90.0 60.0)
           (-90.0 90.0)
           (-90.0 90.0)
  end
  begin
     id 26 
     name rradius
     direction -1 -4.48987e-011 1.08427e-026   
     length 3.51208   
     axis 180 30 90   XYZ
    dof rx
    limits (-10.0 170.0)
  end
  begin
     id 27 
     name rwrist
     direction -1 -4.48961e-011 1.73222e-026   
     length 1.75604   
     axis -9.60847e-015 -90 -90   XYZ
    dof ry
    limits (-180.0 0.0)
  end
  begin
     id 28
     name rhand
     direction -1 -4.48895e-011 3.46314e-026   
     length 0.586681   
     axis -2.21073e-014 -90 -90   XYZ
    dof rx rz
    limits (-90.0 90.0)
           (-45.0 45.0)
  end
  begin
     id 29
     name rfingers
     direction -1 -4.48968e-011 6.92916e-026   
     length 0.472997   
     axis -4.42155e-014 -90 -90   XYZ
    dof rx
    limits (0.0 90.0)
  end
  begin
     id 30
     name rthumb
     direction -0.707107 -6.34848e-011 0.707107   
     length 0.679133   
     axis -90 -45 -6.0103e-014   XYZ
    dof rx rz
    limits (-45.0 45.0)
           (-45.0 45.0)
  end
:hierarchy
  begin
    root lhipjoint rhipjoint lowerback
    lhipjoint lfemur
    lfemur ltibia
    ltibia lfoot
    lfoot ltoes
    rhipjoint rfemur
    rfemur rtibia
    rtibia rfoot
    rfoot rtoes
    lowerback upperback
    upperback thorax
    thorax lowerneck lclavicle rclavicle
    lowerneck upperneck
    upperneck head
    lclavicle lhumerus
    lhumerus lradius
    lradius lwrist
    lwrist lhand lthumb
    lhand lfingers
    rclavicle rhumerus
    rhumerus rradius
    rradius rwrist
    rwrist rhand rthumb
    rhand rfingers
  end

#!OML:ASF H:\Dans Jumps\Project 1\Capture day 1\Session 1\subject.ASF
:FULLY-SPECIFIED
:DEGREES
37
root 0.436477 17.5573 -13.8745 5.58576 0.540305 -1.74279
lowerback -4.79657 -0.698437 0.844872
upperback 1.50935 -1.05784 1.73578
thorax 4.26775 -0.527052 1.23002
lowerneck -13.0458 -0.399111 -2.57169
upperneck 4.43421 -0.207472 1.29224
head 3.80231 -0.0905313 0.8798
rclavicle 1.19271e-015 -1.51076e-014
rhumerus -25.3962 -21.222 -79.0892
rradius 24.644
rwrist 33.9576
rhand -16.9881 -27.2339
rfingers 7.12502
rthumb 9.24684 -57.0112
lclavicle 1.19271e-015 -1.51076e-014
lhumerus -23.2885 -1.30053 89.7633
lradius 19.0017
lwrist 2.28287
lhand -24.2219 -3.14072
lfingers 7.12502
lthumb 2.26305 26.827
rfemur -10.7992 -3.65547 20.2893
rtibia 18.945
rfoot -13.0743 -1.8198
rtoes 4.31696
lfemur -9.26525 8.5411 -17.2283
ltibia 15.5862
lfoot -10.5952 3.13222
ltoes -7.26661
38
root 0.438919 17.5571 -13.8758 5.57821 0.547995 -1.74665
lowerback -4.79098 -0.698459 0.84663
upperback 1.50795 -1.05787 1.73661
thorax 4.26312 -0.527038 1.22996
lowerneck -13.0219 -0.405274 -2.57675
upperneck 4.38181 -0.215429 1.29376
head 3.77913 -0.0942694 0.880207
rclavicle 9.19379e-015 3.97569e-015
rhumerus -25.3764 -21.1784 -79.1271
rradius 24.6665
rwrist 33.9211
rhand -16.9723 -27.2442
rfingers 7.12502
rthumb 9.26207 -57.0208
lclavicle 9.19379e-015 3.97569e-015
lhumerus -23.2662 -1.31416 89.7664
lradius 19.0087
lwrist 2.27858
lhand -24.2397 -3.18297
lfingers 7.12502
lthumb 2.24588 26.785
rfemur -10.7919 -3.64701 20.285
rtibia 18.9404
rfoot -13.0676 -1.83541
rtoes 4.30022
lfemur -9.26948 8.55023 -17.2322
ltibia 15.5983
lfoot -10.6101 3.10331
ltoes -7.23728
39
root 0.441346 17.557 -13.8771 5.57021 0.554461 -1.75436
lowerback -4.78475 -0.69828 0.851341
upperback 1.50708 -1.05791 1.7394
thorax 4.25866 -0.526975 1.23027
lowerneck -13.0034 -0.409932 -2.57773
upperneck 4.33202 -0.221403 1.2887
head 3.75786 -0.0972689 0.877855
rclavicle 9.39258e-015 1.98785e-015
rhumerus -25.3561 -21.1348 -79.164
rradius 24.6873
rwrist 33.8897
rhand -16.9602 -27.2469
rfingers 7.12502
rthumb 9.27371 -57.0229
lclavicle 9.39258e-015 1.98785e-015
lhumerus -23.2449 -1.32029 89.7697
lradius 19.0202
lwrist 2.26771
lhand -24.256 -3.2074
lfingers 7.12502
lthumb 2.23012 26.7607
rfemur -10.7837 -3.63413 20.2848
rtibia 18.9347
rfoot -13.0594 -1.85254
rtoes 4.29769
lfemur -9.27423 8.56065 -17.2318
ltibia 15.6122
lfoot -10.6254 3.07468
ltoes -7.21387
40
root 0.443783 17.5567 -13.8784 5.56083 0.560892 -1.76312
lowerback -4.77662 -0.698704 0.855562
upperback 1.5062 -1.05876 1.74405
thorax 4.25318 -0.527356 1.23273
lowerneck -12.9877 -0.411143 -2.5758
upperneck 4.28063 -0.222804 1.27875
head 3.73644 -0.0981721 0.873675
rclavicle 1.73937e-015 -3.18055e-015
rhumerus -25.3362 -21.0894 -79.199
rradius 24.7058
rwrist 33.8607
rhand -16.9522 -27.2424
rfingers 7.12502
rthumb 9.28145 -57.0181
lclavicle 1.73937e-015 -3.18055e-015
lhumerus -23.2273 -1.32195 89.7748
lradius 19.0376
lwrist 2.25442
lhand -24.2702 -3.21557
lfingers 7.12502
lthumb 2.21642 26.7527
rfemur -10.7734 -3.62006 20.2858
rtibia 18.9282
rfoot -13.0524 -1.87106
rtoes 4.29225
lfemur -9.27852 8.57543 -17.2302
ltibia 15.6278
lfoot -10.6421 3.04123
ltoes -7.19226
41
root 0.446254 17.5565 -13.8796 5.55075 0.565014 -1.77331
lowerback -4.77028 -0.698304 0.861152
upperback 1.50644 -1.05868 1.74949
thorax 4.24985 -0.527253 1.23529
lowerneck -12.9767 -0.408071 -2.56654
upperneck 4.22479 -0.218996 1.26128
head 3.71416 -0.0966842 0.866022
rclavicle 4.02539e-015 -7.55382e-015
rhumerus -25.3156 -21.0405 -79.2344
rradius 24.7248
rwrist 33.8311
rhand -16.943 -27.2391
rfingers 7.12502
rthumb 9.29032 -57.0144
lclavicle 4.02539e-015 -7.55382e-015
lhumerus -23.211 -1.3273 89.7832
lradius 19.0595
lwrist 2.25187
lhand -24.2872 -3.20234
lfingers 7.12502
lthumb 2.20002 26.7661
rfemur -10.7617 -3.60252 20.288
rtibia 18.9209
rfoot -13.0451 -1.89059
rtoes 4.28869
lfemur -9.28264 8.59 -17.227
ltibia 15.6457
lfoot -10.6583 3.00984
ltoes -7.16191
42
root 0.448764 17.5562 -13.8807 5.54097 0.569681 -1.78328
lowerback -4.76532 -0.698366 0.866262
upperback 1.50677 -1.05924 1.75554
thorax 4.24743 -0.527488 1.23869
lowerneck -12.9672 -0.399982 -2.54953
upperneck 4.16572 -0.209081 1.23531
head 3.69084 -0.0924133 0.854563
rclavicle 1.14301e-015 -7.95139e-016
rhumerus -25.2961 -20.9843 -79.2708
rradius 24.7454
rwrist 33.7955
rhand -16.9317 -27.2406
rfingers 7.12502
rthumb 9.30121 -57.0155
lclavicle 1.14301e-015 -7.95139e-016
lhumerus -23.1957 -1.35042 89.7981
lradius 19.082
lwrist 2.27415
lhand -24.3061 -3.17461
lfingers 7.12502
lthumb 2.18176 26.794
rfemur -10.7502 -3.58622 20.2898
rtibia 18.9139
rfoot -13.0375 -1.90969
rtoes 4.28532
lfemur -9.28752 8.60528 -17.2243
ltibia 15.6644
lfoot -10.6739 2.97734
ltoes -7.13827
43
root 0.451359 17.5558 -13.8817 5.5298 0.572605 -1.79167
lowerback -4.76011 -0.697889 0.871953
upperback 1.50681 -1.05905 1.76006
thorax 4.2445 -0.52731 1.24025
lowerneck -12.9584 -0.388289 -2.52801
upperneck 4.10697 -0.194983 1.20769
head 3.66765 -0.0860635 0.842049
rclavicle -1.2921e-015 6.75868e-015
rhumerus -25.2811 -20.9232 -79.3082
rradius 24.7692
rwrist 33.7551
rhand -16.9218 -27.2388
rfingers 7.12502
rthumb 9.31083 -57.0131
lclavicle -1.2921e-015 6.75868e-015
lhumerus -23.178 -1.39366 89.8169
lradius 19.0979
lwrist 2.32205
lhand -24.3216 -3.14584
lfingers 7.12502
lthumb 2.16679 26.8229
rfemur -10.7374 -3.57249 20.2891
rtibia 18.9078
rfoot -13.0313 -1.92478
rtoes 4.27358
lfemur -9.29017 8.6218 -17.2236
ltibia 15.6828
lfoot -10.6889 2.94459
ltoes -7.11677
44
root 0.454067 17.5555 -13.8827 5.51904 0.57377 -1.79671
lowerback -4.75428 -0.696899 0.877096
upperback 1.50539 -1.058 1.76233
thorax 4.23967 -0.526689 1.23986
lowerneck -12.9462 -0.375728 -2.50624
upperneck 4.04881 -0.179972 1.18132
head 3.64403 -0.079204 0.829976
rclavicle 3.42904e-015 7.15625e-015
rhumerus -25.2707 -20.8544 -79.3477
rradius 24.7977
rwrist 33.7071
rhand -16.9092 -27.2461
rfingers 7.12502
rthumb 9.32298 -57.02
lclavicle 3.42904e-015 7.15625e-015
lhumerus -23.1588 -1.46219 89.8404
lradius 19.1063
lwrist 2.39591
lhand -24.3423 -3.11997
lfingers 7.12502
lthumb 2.14681 26.849
rfemur -10.7264 -3.56362 20.284
rtibia 18.904
rfoot -13.0262 -1.93306
rtoes 4.26059
lfemur -9.29165 8.63711 -17.2275
ltibia 15.699
lfoot -10.7025 2.91515
ltoes -7.10314
45
root 0.456876 17.5552 -13.8835 5.50713 0.574776 -1.7993
lowerback -4.74755 -0.695828 0.88271
upperback 1.5023 -1.05673 1.76237
thorax 4.23253 -0.525915 1.23694
lowerneck -12.9268 -0.364972 -2.48895
upperneck 3.99522 -0.167354 1.16168
head 3.62075 -0.073327 0.820797
rclavicle -8.64713e-015 1.19271e-015
rhumerus -25.2697 -20.7801 -79.3878
rradius 24.8311
rwrist 33.6521
rhand -16.9037 -27.2532
rfingers 7.12502
rthumb 9.32829 -57.0268
lclavicle -8.64713e-015 1.19271e-015
lhumerus -23.1445 -1.54155 89.8642
lradius 19.1153
lwrist 2.47577
lhand -24.3577 -3.08849
lfingers 7.12502
lthumb 2.13185 26.8806
rfemur -10.715 -3.56042 20.2756
rtibia 18.9026
rfoot -13.0228 -1.93703
rtoes 4.23717
lfemur -9.28916 8.65331 -17.2343
ltibia 15.7116
lfoot -10.7157 2.88491
ltoes -7.09484
